# xmcd
#
# Track frame offsets:
#	150
#	21675
#	39900
#	61875
#	79050
#	105450
#	126600
#	152550
#	171675
#	188400
#
# Disc length: 2782 seconds
#
# Revision: 0
# Processed by: cddbd v1.4PL0 Copyright (c) Steve Scherf et al.
# Submitted via: EasyCDDAExtractor 5.0.2.1
#
DISCID=820adc0a
DTITLE=許志安 - 想說
DYEAR=1994
DGENRE=Blues
TTITLE0=想說
TTITLE1=不是過客
TTITLE2=這裡只剩我
TTITLE3=一成不變的謊言
TTITLE4=愛的迷局
TTITLE5=我知道如何對你好
TTITLE6=善變的柔情
TTITLE7=真心難尋
TTITLE8=被你拒收的心
TTITLE9=似曾相似
EXTD=
EXTT0=
EXTT1=
EXTT2=
EXTT3=
EXTT4=
EXTT5=
EXTT6=
EXTT7=
EXTT8=
EXTT9=
PLAYORDER=
